#!OML:ASF G:\acrobat\cartwheel_test\acrobat_wednesday\Session 1\acrobatwednesday.ASF
:FULLY-SPECIFIED
:DEGREES
400
root 21.665 14.5682 -11.1847 -380.323 37.2606 -187.585
lowerback 10.4488 1.75718 5.13547
upperback -6.37966 3.271 1.4332
thorax -12.6855 1.12594 -1.98744
lowerneck -24.1714 0.927531 -6.35188
upperneck -2.72632 3.28307 8.10563
head 2.67107 2.42119 3.87177
rclavicle 1.61612e-013 5.88403e-014
rhumerus 74.9626 -42.963 -47.9743
rradius 36.6638
rwrist 53.0388
rhand -57.5102 95.2183
rfingers 7.12502
rthumb -29.7785 -237.155
lclavicle 1.61612e-013 5.88403e-014
lhumerus 72.3898 35.7892 34.1021
lradius 41.1343
lwrist 15.4852
lhand -62.7468 -433.527
lfingers 7.12502
lthumb -34.7627 -46.9162
rfemur 21.8555 -360.937 -6.40378
rtibia 45.9574
rfoot -25.0088 -14.0178
rtoes 6.70391
lfemur -20.1612 0.961322 13.3916
ltibia 21.3738
lfoot 160.512 171.578
ltoes 57.4258
401
root 21.3854 14.5448 -11.3914 -380.304 39.0915 -184.236
lowerback 10.9289 1.54468 4.66259
upperback -6.05317 3.03294 0.852318
thorax -12.6097 1.12247 -2.34705
lowerneck -23.8645 1.17739 -6.21662
upperneck -2.00645 3.48618 8.14978
head 2.83799 2.49581 3.88268
rclavicle 1.88945e-013 1.35174e-014
rhumerus 74.8927 -41.8346 -47.3375
rradius 35.5332
rwrist 54.8067
rhand -57.3102 96.0624
rfingers 7.12502
rthumb -29.5876 -236.276
lclavicle 1.88945e-013 1.35174e-014
lhumerus 76.4219 33.2556 42.1617
lradius 39.6346
lwrist 10.8993
lhand -62.2518 -442.829
lfingers 7.12502
lthumb -34.2929 -56.1109
rfemur 21.2635 -360.227 -6.18493
rtibia 48.7747
rfoot -25.7064 -13.2095
rtoes 6.0437
lfemur -22.9968 2.85127 14.6534
ltibia 23.3536
lfoot 161.479 170.096
ltoes 58.689
402
root 21.107 14.5259 -11.5936 -379.942 40.5513 -180.638
lowerback 11.5668 1.51293 4.27759
upperback -5.48287 2.81122 0.00956206
thorax -12.3253 1.00526 -3.01931
lowerneck -24.8341 1.20503 -5.85689
upperneck -1.0207 3.40607 8.15845
head 3.28788 2.46659 3.85942
rclavicle 1.47449e-013 4.17448e-014
rhumerus 74.125 -41.3544 -45.8028
rradius 34.5989
rwrist 55.2218
rhand -56.8834 95.8006
rfingers 7.12502
rthumb -29.1801 -236.467
lclavicle 1.47449e-013 4.17448e-014
lhumerus 72.6666 32.3116 39.1495
lradius 42.3813
lwrist 13.6357
lhand -62.4016 -449.039
lfingers 7.12502
lthumb -34.435 -62.3527
rfemur 20.2324 -359.181 -5.87777
rtibia 51.5738
rfoot -25.7911 -12.7126
rtoes 4.24074
lfemur -25.6786 4.48124 16.4311
ltibia 24.3671
lfoot 162.477 168.496
ltoes 58.7971
403
root 20.8208 14.5173 -11.7838 -379.148 41.3983 -176.661
lowerback 12.1519 1.47693 3.89284
upperback -4.97944 2.577 -0.905027
thorax -12.0916 0.879706 -3.76532
lowerneck -25.265 1.21701 -5.71997
upperneck -0.376833 3.34579 8.24466
head 3.55371 2.44224 3.88058
rclavicle -1.32689e-014 2.43511e-015
rhumerus 72.7262 -40.772 -43.1256
rradius 33.4233
rwrist 54.3062
rhand -56.3794 95.6237
rfingers 7.12502
rthumb -28.6988 -236.561
lclavicle -1.32689e-014 2.43511e-015
lhumerus 69.7313 31.685 36.1413
lradius 43.6056
lwrist 15.4047
lhand -62.1123 -626.074
lfingers 7.12502
lthumb -34.1604 -67.178
rfemur 18.7943 -357.413 -5.35725
rtibia 54.0013
rfoot -26.4075 -11.9974
rtoes 2.39166
lfemur -27.8321 6.47058 18.6773
ltibia 24.5108
lfoot 164.358 166.862
ltoes 56.792
404
root 20.5211 14.5274 -11.9595 -378.192 41.6982 -172.505
lowerback 12.8374 1.46044 3.366
upperback -4.70304 2.37661 -1.64987
thorax -12.1945 0.779708 -4.26526
lowerneck -24.8679 1.25128 -6.10641
upperneck 0.121744 3.40355 8.55181
head 3.64266 2.46438 4.04434
rclavicle 1.76322e-013 6.32135e-014
rhumerus 71.5883 -39.4624 -40.1326
rradius 31.6765
rwrist 53.174
rhand -55.86 95.2784
rfingers 7.12502
rthumb -28.2025 -236.823
lclavicle 1.76322e-013 6.32135e-014
lhumerus 67.3121 31.0282 33.2129
lradius 43.146
lwrist 16.7072
lhand -61.4223 -622.51
lfingers 7.12502
lthumb -33.5048 -70.5975
rfemur 17.3142 -354.847 -4.39328
rtibia 55.8199
rfoot -27.3068 -10.78
rtoes 1.04443
lfemur -29.461 7.98524 21.7548
ltibia 23.7443
lfoot 163.283 165.147
ltoes 55.6143
405
root 20.2018 14.556 -12.1267 -377.487 41.8709 -168.486
lowerback 13.8543 1.51945 2.95183
upperback -4.36039 2.30151 -2.36186
thorax -12.4089 0.728616 -4.83847
lowerneck -24.8927 1.26527 -6.4124
upperneck 0.839281 3.42852 8.75049
head 3.86201 2.47272 4.1723
rclavicle -1.78111e-013 -4.69132e-014
rhumerus 70.4439 -38.3516 -36.8626
rradius 29.8456
rwrist 51.6364
rhand -55.6731 93.7368
rfingers 7.12502
rthumb -28.0237 -238.336
lclavicle -1.78111e-013 -4.69132e-014
lhumerus 66.598 30.2369 32.0422
lradius 41.7863
lwrist 16.9822
lhand -60.868 -620.401
lfingers 7.12502
lthumb -32.9778 -72.5938
rfemur 16.3585 -352.092 -3.1116
rtibia 56.8491
rfoot -27.9364 -8.84496
rtoes -0.584742
lfemur -30.6213 9.24684 25.452
ltibia 22.4212
lfoot 161.075 161.12
ltoes 55.3664
